<svg width="2160" height="2700" viewBox="0 0 2160 2700" fill="none" xmlns="http://www.w3.org/2000/svg"><g clip-path="url(#a)"><path d="M2179.75-22.377H-29.36V2730.74h2209.11z" fill="#1D9A6C"/><path fill-rule="evenodd" clip-rule="evenodd" d="M2179.75-22.377V2730.74H-29.36V-22.377zm-94.01 94H64.64V2636.74h2021.1z" fill="#FF050B"/><path fill-rule="evenodd" clip-rule="evenodd" d="m1172.11-398.311 11.18.941-124.99 2447.66 372.83-2405.777 10.99 2.803-372.84 2405.774 614.29-2322.729 10.6 4.62-614.28 2322.739 845.23-2199.954 10.04 6.362-845.22 2199.942L2151.64 24.553l9.32 7.989L1099.25 2072.06 2359.28 227.867l8.42 9.481L1107.67 2081.54l1436.8-1617.313 7.37 10.809L1115.06 2092.35 2704.02 729.589l6.24 11.954L1121.28 2104.31l1713.96-1084.9 4.94 12.9L1126.24 2117.2l1809.6-788.46 3.6 13.61-1809.6 788.47 1874.3-478.54 2.19 14.1-1874.31 478.54 1906.93-160.43.75 14.34-1906.95 160.43 1906.95 160.43-.75 14.35-1906.93-160.43 1874.31 478.54-2.19 14.1-1874.3-478.54 1809.6 788.46-3.6 13.62-1809.6-788.46 1713.94 1084.89-4.94 12.89-1713.96-1084.89 1588.98 1362.76-6.24 11.96-1588.96-1362.77 1436.78 1617.32-7.37 10.81-1436.8-1617.32 1260.03 1844.2-8.42 9.48-1260.03-1844.2 1061.71 2039.53-9.32 7.97-1061.7-2039.51 845.22 2199.95-10.04 6.35-845.23-2199.94 614.28 2322.74-10.6 4.61-614.29-2322.73 372.84 2405.77-10.99 2.81-372.83-2405.77 124.99 2447.64-11.18.94-124.99-2447.64-124.987 2447.64-11.178-.94 124.985-2447.64-372.82 2405.77-10.987-2.81 372.827-2405.77-614.283 2322.73-10.608-4.61 614.281-2322.74-845.228 2199.94-10.047-6.35L1004.3 2254.45-57.41 4293.96l-9.312-7.97L994.99 2246.46l-1260.031 1844.2-8.421-9.48 1260.029-1844.2L-450.221 3854.3l-7.385-10.81L979.182 2226.17-609.783 3588.94l-6.221-11.96L972.959 2214.22-740.992 3299.11l-4.955-12.89L968.004 2201.33l-1809.612 788.46-3.601-13.62 1809.613-788.46-1874.31 478.54-2.185-14.1 1874.31-478.54-1906.939 160.43-.733-14.35 1906.939-160.43-1906.939-160.43.733-14.34 1906.939 160.43-1874.31-478.54 2.185-14.1 1874.31 478.54-1809.613-788.47 3.601-13.61L968.004 2117.2-745.947 1032.31l4.955-12.9 1713.951 1084.9L-616.004 741.543l6.221-11.954L979.182 2092.35-457.606 475.036l7.385-10.809L986.567 2081.54-273.462 237.348l8.421-9.481L994.99 2072.06-66.721 32.542l9.312-7.99L1004.3 2064.07 159.075-135.872l10.047-6.362L1014.35 2057.72 400.069-265.019l10.608-4.62L1024.96 2053.09 652.133-352.684l10.987-2.803 372.82 2405.777L910.955-397.37l11.178-.941L1047.12 2049.35z" fill="#FAF6B0" fill-opacity=".57"/><g opacity=".21"><path fill-rule="evenodd" clip-rule="evenodd" d="M2030.1 885.681s-109.51-274.236-201.48-350.93c-91.98-76.694-350.38-109.235-350.38-109.235L660.923 442.28S368.237 555.681 296.382 627.963c-54.58 54.893-98.818 253.509-98.818 253.509L22.562 1092.06l25.96 236.79-161.774 355.66-34.819 120.11 43.343 190.98-100.154 52.96-47.415 134.71 242.54 644.27c276.585 477.22 1975.877 436.92 2166.577 7.22l256.67-636.42-108.31-98.75-18.52-132.06-143.03-29.05s247.48-201.56 261.65-299.3c14.16-97.74-176.67-287.15-176.67-287.15l-14.17-340.84z" fill="#FF050B" stroke="#000" stroke-width="23.423" stroke-miterlimit="1.5" stroke-linecap="square" stroke-linejoin="round"/><path fill-rule="evenodd" clip-rule="evenodd" d="m687.246 436.395-204.145 364.47 98.132 261.655L397.55 749.837l-68.313 88.537 55.673 230.746-103.252-145.289-164.921 183.439 84.877 287.55-81.325-98.16 122.062 163-154.248-26.51-91.663 24.37 143.207 48.09s-182.815 65.66-147.943 68.33c34.872 2.7 214.714-36.63 214.714-36.63l-145.946 92.26 94.085-8.82-124.042 209.98 196.83 122.64-40.312-142.7 47.265 207.89-221.353 56.22-131.711-183.32-28.781-73.78 39.57-148.37 154.475-363.15-29.752-232.53L195.25 889.314l109.605-269.482z" fill="#000" fill-opacity=".3"/><path fill-rule="evenodd" clip-rule="evenodd" d="m1604.39 1164.07-261.47 425.15 83-314.58-213.34 387.42-122.69-58.52-199.977-272.15 55.034 256.56-300.782-466.16 60.071 277.57-193.841-147.26 330.925 351.52-217.21-128.16 75.156 398.78-140.077-42.42 12.332 228.6-263.718 64.6 124.791 26.07-320.703 105.09 234.685 99.87-161.628 19.65 97.736 74.48-52.909 42.68 156.817 85.01c521.987 199.59 999.958 363.21 1605.178-129.8l113.22-152.34-128.31 9.13 166.41-235.89-122.75 28.91-.82-218.92-207.3.97-64.53-164.74-50.15-28.08-31.78 214.45-6.48-275.34-219.22 126.99 251.44-456.15z" fill="#8DCCB5" fill-opacity=".5"/><path d="M1108.81 3015.31c330.27 0 598.01-214.9 598.01-479.99s-267.74-479.99-598.01-479.99c-330.263 0-597.998 214.9-597.998 479.99s267.735 479.99 597.998 479.99" fill="#F7F189" fill-opacity=".52" stroke="#8DCCB5" stroke-opacity=".31" stroke-width="367.137" stroke-miterlimit="1.5" stroke-linecap="round" stroke-linejoin="round"/><path fill-rule="evenodd" clip-rule="evenodd" d="M1149.08 1534.97c54.33-4.55 95.38-100.17 149.58-212.01 75.76-156.36 157.08-351.354 158.83-434.68 5.5-262.973 21.11-577.453-364.85-570.165-426.006 8.039-375.619 320.594-381.121 583.558-2.991 142.947 359.721 639.807 437.561 633.297" fill="#994662" stroke="#000" stroke-width="23.377" stroke-miterlimit="1.5" stroke-linecap="round" stroke-linejoin="round"/><path fill-rule="evenodd" clip-rule="evenodd" d="m1380.93 772.543 16.94 143.141-266.78 224.056-106.78 144.65 133.57 255.31 151.37-229.6-5.7 90.48 138.32-258.78 50.21-17.92 48.08-153.114-40.8-160.486z" fill="#000" fill-opacity=".4"/><path fill-rule="evenodd" clip-rule="evenodd" d="m737.325 454.226-47.833-38.478 21.578-35.88 11.811-45.647 65.563-24.631 41.739-40.786 39.776-7.388 40.777-30.204 80.407-18.985 73.367-38.565 69.62 25.575 49.17-16.329 76.73 25.487 97.74-10.029 17.53 25.11 11.18 54.777 52.98 18.811-29.45 87.493s-321.36 89.684-335.62 96.564c-14.25 6.88-337.065-26.895-337.065-26.895" fill="#B4AD60"/><path fill-rule="evenodd" clip-rule="evenodd" d="m737.325 454.226-47.833-38.478 21.578-35.88 11.811-45.647 65.563-24.631 41.739-40.786 39.776-7.388 40.777-30.204 80.407-18.985 73.367-38.565 69.62 25.575 49.17-16.329 76.73 25.487 97.74-10.029 17.53 25.11 11.18 54.777 52.98 18.811-29.45 87.493s-321.36 89.684-335.62 96.564c-14.25 6.88-337.065-26.895-337.065-26.895m332.875 13.672c27.06-10.015 282.99-81.817 329.01-94.721l22.76-67.608-40.14-14.253a13.87 13.87 0 0 1-8.94-10.291l-10.61-51.961-11.21-16.068-89.63 9.188a14 14 0 0 1-5.79-.624l-72.36-24.036-44.79 14.877c-2.98.987-6.2.929-9.15-.145l-63.85-23.455-67.904 35.705a14.7 14.7 0 0 1-3.273 1.219l-77.627 18.318-38.48 28.506a13.6 13.6 0 0 1-5.719 2.496l-35.647 6.619-38.72 37.839a13.8 13.8 0 0 1-4.81 3.062l-58.815 22.106-10.02 38.666a13.3 13.3 0 0 1-1.537 3.673l-15.338 25.516 35.219 28.332c29.301 3.048 209.527 21.583 291.831 26.271 17.11.973 33.32.798 35.54.769" fill="#000"/><path clip-rule="evenodd" d="m1055.87 774.554 47.29-35.21 37.39 28.928z" stroke="#000" stroke-width="17.57" stroke-miterlimit="1.5" stroke-linecap="round" stroke-linejoin="round"/><path fill-rule="evenodd" clip-rule="evenodd" d="M1010.49 536.585c-.6-1.323-.02-2.886 1.3-3.479a2.634 2.634 0 0 1 3.49 1.302s26.19 48.283 26.85 74.576c.33 13.354-5.96 21.605-16.65 24.251-11.42 2.781-28.127 1.562-48.552-2.084-18.958-3.385-41.262-8.74-65.37-14.584-20.195-4.906-41.655-9.886-63.404-14.25-13.875-2.782-27.818-5.438-41.722-7.313-30.293-4.094-60.173-5.261-87.569 3.135-10.884 3.105-13.205 16.355-14.164 30.793-2.157 32.491 7.413 72.149 7.413 72.149a2.62 2.62 0 0 1-1.659 3.323 2.633 2.633 0 0 1-3.327-1.656s-21.538-50.846-20.378-87.15c.624-19.396 8.688-34.136 23.532-40.834 20.502-8.949 42.835-13.616 66.128-14.97 21.671-1.271 44.091.282 66.223 3.917 16.148 2.656 32.095 6.573 47.524 10.928 15.938 4.489 31.252 9.604 45.693 14.552 23.705 8.115 44.743 15.897 61.898 20.251 9.734 2.469 17.844 4.271 24.304 3.646.23-.021.26.604.41.448 1.12-1.271 1.78-3.157 2.08-5.48.61-4.843.38-10.698-.42-16.948-3.18-24.761-13.63-54.523-13.63-54.523m70.71-.937a2.63 2.63 0 0 1 2.18-3.011c1.43-.229 2.78.75 3.01 2.188 0 0 5.09 19.115 14.22 28.23 4.44 4.427 9.31 2.854 16.43-7.427 10.92-15.397 24.18-34.866 39.72-54.867 13.71-17.667 28.81-35.731 44.53-51.919 8.92-9.198 18.1-17.74 27.3-25.167 17.46-14.116 34.85-24.512 50-30.283 24.7-8.584 47.72-3.875 67.17 9.407 29.51 20.146 49.89 57.189 55.73 70.794.7 1.271.23 2.875-1.04 3.573-1.28.698-2.88.24-3.57-1.031-7.64-11.126-32.38-40.408-62.09-53.773-13.82-6.209-28.78-8.073-43.61-.167-9.26 4.667-18.89 12.313-29.34 21.105-6.21 5.23-12.52 11.011-19.12 16.928-14.54 13.021-29.71 27.428-44.58 41.835-24.93 24.147-49.1 47.658-66.75 65.638-15.01 14.813-25.96 15.074-33.71 9.698-4.95-3.437-8.98-9.396-11.45-16.407-4.17-11.781-5.03-25.344-5.03-25.344" fill="#000"/><path fill-rule="evenodd" clip-rule="evenodd" d="M994.861 628.64c-1.18.646-2.33 2.74-3.328 5.219 4.076-.854 6.933-1.614 6.272-3.125-.576-1.312-1.18-2.01-1.784-2.229l3.347-.375c30.922-2.635 24.272 27.834 19.332 32.126-1.12.979-3.54 2.938-7.82 4.501-3.55 1.312-10.56 3.427-20.219 5.729-24.376 5.802-66.588 14.469-109.289 22.157-42.03 7.563-84.155 13.928-109.701 18.074-10.673 1.729-18.344 2.927-21.892 3.562-.431.073-.863.094-1.208.115a.2.2 0 0 1-.048.031v-.031c-.345.031-.575.073-.537.219.009.01.009.031.009.041a2 2 0 0 1-.441.104c-2.013.438-4.737-4.021.796-5.937 3.424-1.188 10.846-3.646 21.192-6.969 20.234-6.501 51.169-16.584 84.204-26.897a4200 4200 0 0 1-40.486 1.489c-61.17 1.959-107.198 2.553-107.198 2.553a2.64 2.64 0 0 1-2.877-2.355 2.636 2.636 0 0 1 2.349-2.885s45.233-8.521 105.559-18.824a4644 4644 0 0 1 70.471-11.479c19.572-3.042 39.373-6.136 58.801-8.657 18.843-2.448 37.273-4.25 54.496-6.157m-246.338 85.785c-.019 1.125-.173 1.646-.528.229.192-.052.365-.135.528-.229m246.338-85.785c.383-.218.777-.27 1.16-.135-.383.042-.777.094-1.16.135" fill="#000"/><path d="M1286.7 691.539c26.01 0 47.09-19.121 47.09-42.709 0-23.587-21.08-42.709-47.09-42.709s-47.1 19.122-47.1 42.709 21.09 42.709 47.1 42.709" fill="gray"/><path fill-rule="evenodd" clip-rule="evenodd" d="M1286.7 603.483c14.09-2.187 27.11 1.48 37.78 8.282 12.81 8.156 20.17 21.688 22.29 37.064 1.73 16.573-5.22 31.939-16.7 43.522-10.66 10.772-26.31 16.772-43.37 17.636-6.59-.083-12.98-.843-18.89-2.76-9.48-3.094-18.04-8.021-24.59-14.751-11.41-11.719-18.48-27.032-16.75-43.647 2.16-15.418 9.53-28.97 22.4-37.116 10.7-6.782 23.73-10.449 37.83-8.23m0 5.261c-11.35 1.792-20.47 7.625-27.12 15.355-5.87 6.833-8.12 15.604-6.84 24.73.82 7.844 6.29 13.594 12.49 18.178 5.8 4.302 13.34 6.448 21.47 6.073 8.15.406 15.75-1.646 21.58-5.948 6.25-4.605 11.73-10.418 12.55-18.303 1.26-9.157-1.05-17.949-6.96-24.782-6.67-7.72-15.81-13.543-27.17-15.303" fill="#000"/><path fill-rule="evenodd" clip-rule="evenodd" d="m804.541 782.568 108.838 136.741 6.12 199.791 220.091 101.06-68.7 53.04 96.96 53.85-79.54 5.31 93.68 65.37-87.44 9.36 51.84 159.02-59.18-37.34-211.869-315.53-230.036-232.448 25.025-195.001z" fill="#000" fill-opacity=".4"/><path fill-rule="evenodd" clip-rule="evenodd" d="M769.977 922.516C915.905 1077.85 1149.09 1147.3 1165.78 1118.26c-63.14 23.22-38.48 100.74-87.06 86.18 46.97 65.83 9.88 144.81 75.64 197.46-68.7-32.09-136-66.49-189.233-124.35l174.963 282.13-189.5-209.61-165.783-215.48z" fill="#000" fill-opacity=".6"/><path fill-rule="evenodd" clip-rule="evenodd" d="m1133.2 706.34-79.59 8.002-64.126 48.82 66.176-21.144 47.87-19.057 32.5 20.575 65.07 19.642zm-37.71 112.553c-65.52 2.768-194.589-30.348-194.589-30.348l77.326 56.696-88.069-3.891-55.556 3.353 80.378 76.37 57.562 93.477-16.819 29.85s131.077 72.81 163.417 70.64c32.35-2.18 133.67-63.12 133.67-63.12l-66 17.02 80.21-98.399s-90.61 45.709-66 30.809c24.63-14.883 160.55-197.987 160.55-197.987l-97.74 48.109s131.15-81.415 64.76-66.185-159.49 30.491-233.1 33.606" fill="#8DCCB5" fill-opacity=".4"/><path fill-rule="evenodd" clip-rule="evenodd" d="M822.703 814.033c100.854 70.237 431.477 59.093 545.177 2.581 0 0-180.56 178.98-281.44 193.996-92.148 13.72-263.262-195.814-263.737-196.577" fill="#000"/><path fill-rule="evenodd" clip-rule="evenodd" d="M824.877 810.925c28.854 18.974 75.985 30.441 131.119 36.746 42.787 4.898 90.384 6.423 138.154 5.22 47.28-1.173 94.67-5.015 137.72-11.261 53.78-7.801 100.74-19.062 131.47-34.166 4.49-2.258 9.94-.879 12.87 3.197 2.91 4.076 2.44 9.678-1.14 13.226 0 0-78.04 76.308-160.65 133.201-44.75 30.793-90.91 55.782-126.89 60.792-35.17 4.87-81.42-20.614-125.434-56.041-73.844-59.444-142.295-145.283-142.594-145.753a3.794 3.794 0 0 1 .574-4.78 3.8 3.8 0 0 1 4.801-.381m16.517 18.945c24.57 27.626 75.128 81.762 128.063 122.585 41.233 31.79 83.613 56.045 115.893 50.885 34.08-5.4 77.19-30.445 119.16-60.416 45.75-32.67 90.03-71.411 119.68-98.743-25.98 7.713-56.34 14.106-89.24 18.798-43.9 6.247-92.35 9.649-140.53 9.737-48.69.059-97.133-3.226-140.477-10.088-44.635-7.098-83.844-18.065-112.549-32.758" fill="#000"/><path fill-rule="evenodd" clip-rule="evenodd" d="m923.391 865.617 54.693 49.034.528-22.669 215.758 1.261-4.26 21.027 64.73-46.365c-111.74 7.009-222.5 7.918-331.449-2.288m22.164 69.447s94.755 64.929 136.425 62.641c44.64-2.434 156.66-63.609 156.66-63.609-51.2 13.754-106.8 27.42-155.87 26.482-52.81-1.027-98.504-17.508-137.215-25.514" fill="#fff"/><path fill-rule="evenodd" clip-rule="evenodd" d="M946.318 931.339c24.517 4.517 51.849 12.347 81.972 17.479 17.3 2.962 35.51 5.015 54.63 4.985 19.77 0 40.56-2.522 61.7-6.363 30.59-5.602 61.79-14.136 91.53-22.67 4.72-1.261 9.65 1.203 11.47 5.719 1.82 4.545-.03 9.736-4.34 12.082 0 0-46.72 26.717-92.29 45.691-26.04 10.851-51.79 18.828-68.45 19.558-15.95.41-39.12-7.62-61.88-19.529-38.974-20.382-77.275-50.089-77.275-50.089a3.79 3.79 0 0 1-1.349-4.604 3.83 3.83 0 0 1 4.282-2.259m26.218 14.634c15.132 8.212 35.334 18.623 55.314 27.127 20.2 8.622 40 15.631 53.6 14.488 14.99-.939 37.78-9.473 61.3-19.209a748 748 0 0 0 16.48-7.039c-4.02.675-8.01 1.32-12 1.877-22.2 3.226-43.96 4.927-64.57 4.106-19.86-.792-38.66-3.666-56.49-7.478-19.03-4.106-36.889-9.238-53.634-13.872" fill="#000"/><path fill-rule="evenodd" clip-rule="evenodd" d="m1462.41 468.543-301.27 41.101-82.42 32.855-75.48-11.309-347.893 47.471 8.199 96.669-25.053 84.487 334.144-36.584 120.983-47.22 159.32 17.877 281.03-53.343-53.17-107.966z" fill="#FF050B" stroke="#000" stroke-width="27.744" stroke-miterlimit="1.5" stroke-linecap="square" stroke-linejoin="round"/><path d="M888.624 732.655c72.089 0 130.526-51.907 130.526-115.937s-58.437-115.937-130.526-115.937-130.53 51.907-130.53 115.937 58.44 115.937 130.53 115.937Z" fill="#F2E83A" stroke="#000" stroke-width="27.672" stroke-miterlimit="1.5" stroke-linecap="square" stroke-linejoin="round"/><path d="M1324.65 456.82c-68.19-25.398-138.97 3.113-158.09 63.683-19.11 60.569 20.67 130.259 88.86 155.658 68.2 25.398 138.97-3.113 158.09-63.683s-20.67-130.259-88.86-155.658Z" fill="#F2E83A" stroke="#000" stroke-width="27.458" stroke-miterlimit="1.5" stroke-linecap="square" stroke-linejoin="round"/><path fill-rule="evenodd" clip-rule="evenodd" d="m767.72 1122.08 60.365-349.189c51.68-2.192 217.285-14.427 224.855-60.046l87.89-6.938c26.82 63.718 194.66 42.817 239.69 18.607l91.07 382.066 123.78-279.071-298.46-534.755S722.226 516.479 718.686 552.359c-3.528 35.879 49.034 569.721 49.034 569.721" fill="#000" fill-opacity=".6"/><path fill-rule="evenodd" clip-rule="evenodd" d="M826.981 646.694s36.589 35.784 68.041 31.881c48.037-5.944 78.657-41.418 78.657-41.418-56.788-58.3-105.365-52.615-146.698 9.537m375.789-44.66s31.37 40.944 63.03 41.832c48.35 1.374 83.45-29.111 83.45-29.111-48.32-66.279-97.17-67.991-146.48-12.721" fill="#8DCCB5" fill-opacity=".4"/><path d="M926.959 701.56c47.012.993 85.891-34.365 86.831-78.973.94-44.609-36.407-81.577-83.418-82.57s-85.886 34.364-86.828 78.973 36.404 81.577 83.415 82.57Z" fill="#FF050B" stroke="#000" stroke-width="23.466" stroke-miterlimit="1.5" stroke-linecap="square" stroke-linejoin="round"/><path d="M1280.06 520.287c-44.13-17.111-91.69 2.993-106.22 44.903s9.46 89.754 53.59 106.864 91.69-2.993 106.22-44.902-9.46-89.755-53.59-106.865Z" fill="#FF050B" stroke="#000" stroke-width="23.283" stroke-miterlimit="1.5" stroke-linecap="square" stroke-linejoin="round"/><path d="M913.293 624.191c4.235 0 7.668-3.916 7.668-8.747s-3.433-8.747-7.668-8.747-7.668 3.917-7.668 8.747c0 4.831 3.433 8.747 7.668 8.747m21.535 12.798c6.079 0 11.007-5.628 11.007-12.571s-4.928-12.57-11.007-12.57-11.008 5.628-11.008 12.57 4.929 12.571 11.008 12.571m299.102-30.265c4.23 0 7.66-3.916 7.66-8.747s-3.43-8.747-7.66-8.747c-4.24 0-7.67 3.917-7.67 8.747 0 4.831 3.43 8.747 7.67 8.747m21.29 12.793c5.94 0 10.76-5.626 10.76-12.568s-4.82-12.568-10.76-12.568-10.76 5.627-10.76 12.568c0 6.942 4.82 12.568 10.76 12.568" fill="#fff"/><path fill-rule="evenodd" clip-rule="evenodd" d="M1099.49 410.755 780.742 627.891l-4.035 553.799L647.6 1050.77 474.695 793.907l249.316-468.439 4.823-80.322L1058.88-.424l424.14 198.543-38.26 82.326 41.31 99.815 8.8 53.951 188.97 348.012-196.74 346.427-93.44-541.69z" fill="#FF050B" stroke="#000" stroke-width="15.374" stroke-miterlimit="1.5" stroke-linecap="round" stroke-linejoin="round"/><path fill-rule="evenodd" clip-rule="evenodd" d="M709.317 889.46c.079 2.082-1.558 3.842-3.652 3.93a3.795 3.795 0 0 1-3.944-3.637s-5.299-79.093-7.326-159.653c-.589-23.374-.827-46.894-.651-68.625.261-32.376 1.546-60.852 4.185-79.24 1.537-10.704 3.851-18.417 6.255-22.494 4.314-7.302 16.019-17.83 33.377-30.382 31.904-23.021 83.724-54.635 137.148-91.733 49.767-34.077 101.088-72.144 141.821-98.156 30.62-19.532 55.87-32.142 70.59-32.934 6.42-.323 16.13 1.936 28.18 6.892 22.32 9.179 54.23 27.449 89.48 49.855 105.22 66.835 241.18 170.182 241.18 170.182 1.14.88 1.91 2.17 2.05 3.607l13.9 139.155c.21 2.082-1.29 3.959-3.37 4.193-2.08.235-3.96-1.29-4.19-3.372l-16.43-136.515c-16.42-11.936-142.64-103.347-241.56-163.731-34.63-21.144-65.81-38.476-87.63-47.01-8.85-3.49-15.83-5.572-20.52-5.249-12.97.879-34.49 13.402-61.24 30.998-40.263 26.482-90.998 64.987-140.178 99.505-53.386 36.951-104.983 68.683-137.043 91.381-14.294 10.118-24.599 17.86-28.23 23.784-2.349 3.813-3.753 12.464-5.226 24.341-2.173 17.449-3.645 41.057-4.663 67.334-.838 21.584-1.343 44.928-1.739 68.155-1.372 80.355-.574 159.419-.574 159.419m400.853-650.726c-11.2-.411-22.87 2.58-33.93 6.54-28.59 10.264-53.08 27.801-53.08 27.801-1.55 1.408-3.96 1.261-5.37-.322-1.37-1.584-1.23-3.989.36-5.367 0 0 9.35-9.971 23.93-20.969 7.86-5.924 17.18-12.053 27.33-17.097 13.84-6.833 29.12-11.115 43.78-11.174 1.24.03 3.93.528 7.54 2.552 4.08 2.287 11.97 7.684 22.26 15.602 12.9 9.912 29.79 23.813 48.42 39.297 22.81 18.945 48 40.383 71.47 59.885 30.91 25.719 58.47 48.154 72.84 57.216 3.52 2.229 5.78 3.871 6.98 3.783 2.08-.205 3.96 1.349 4.17 3.431.17 2.083-1.35 3.93-3.43 4.136-1.76.234-5.37-.763-10.33-3.314-12.61-6.481-36.92-23.139-65.19-43.609-24.66-17.86-52.38-38.535-77.77-57.773-19.15-14.517-37.01-28.066-51.21-38.975-13.17-10.118-23.02-17.889-28.09-21.233-.21-.117-.44-.264-.68-.41" fill="#000"/><path fill-rule="evenodd" clip-rule="evenodd" d="m660.85 444.166-182.569 343.15 22.271 38.535 8.727-36.834 95.165 98.742-56.867-161.325 124.174 133.963-76.853-204.171 97.965-161.795 74.612-8.856-26.435-31.791 199.74-157.952-191.631 117.247 67.703-76.483-81.636 21.379L941.22 208.614l-120.209 9.942 255.579-101.675-68.83 90.912 155.26-75.633 106.66 83.141-12.2-66.689 214.96 407.053-44.49-197.866 137.89 360.394 21.5-58.712 3.4 68.624 35.02 10.998-34.25 71.703 79.44-39.268 53.79-109.506 10.76 41.116 52.2-50.207-120.47 228.953 156.92-173.995-15.98 223.674 78.04-187.837 72.29 142.322-65.11 202.622 99.36-121.475-50.35 128.095 81.64-90.41 79.01 52.64 45.57 189.19-170.62 34.02 168.66 86.42-68.66 9.77 67.6 174.4-105.72 272.24 151.32-151.12-90.62 208.92s176.9-187.42 139.51-149.06c-37.39 38.33-125.78 233.17-125.78 233.17l112.82 40.79 63.81-87.57-140.53 12.15s245.17-216.43 253.5-310.22c8.33-93.82-173.85-270.83-173.85-270.83l-12.29-326.55-208.92-153.028-161.97-326.786-330.83-107.042-27.98-19.62-39.27-129.33 39.04-85.574-426.38-191.415-322.851 215.169-6.627 81.645z" fill="#000" fill-opacity=".3"/><path fill-rule="evenodd" clip-rule="evenodd" d="m776.376 1145.21-11.531-525.23 344.875-237.166-369.646 210.953-32.975 324.397-110.616-113.27 67.54 150.688L525.43 852.298l190.14 273.872z" fill="#8DCCB5" fill-opacity=".5"/><path fill-rule="evenodd" clip-rule="evenodd" d="m1492.19 1105.1-87-516.815-311.22-196.34 330.57 165.204 74.14 378.486 9.8-205.848 58.23 164.828 92.48-109.342z" fill="#8DCCB5" fill-opacity=".5"/><path fill-rule="evenodd" clip-rule="evenodd" d="M266.426 1462.38c8.086-24.46 71.194-30.12 71.194-30.12s-19.059-100.51 6.286-136.45c19.939-28.29 125.129-62.96 172.401-61.89 13.815.32 56.41-4.43 56.752 3.05.225 4.66-33.713 17.24-34.287 21.52-8.178 59.9-89.193 82.73-89.193 82.73l52.158 254.74s77.28 42.22 138.676 22.16c69.778-22.8 104.866-85.2 147.533-86.11 8.529-.17 15.354 3.26 20.682 9.09 7.599 8.31 51.751-14.83 53.852-.35 2.235 15.5-37.956 68.81-40.599 82.92-2.453 13.1-6.7 23.71-12.13 28.37-26.15 22.41-152.233 77.02-152.233 77.02-8.592 45.48-21.699 90.93-84.472 135.79.342 54.2-17.613 124.6-41.999 154.44-23.634 28.92-71.319 39.08-104.333 24.65-36.726-16.05-115.969-120.92-115.969-120.92s-82.832-133.78-95.335-172.65c-5.84-18.15 23.019-31.34 20.324-60.59-1.794-19.39-21.388-38.21-19.31-62.21 1.821-21.15 24.777-42.85 29.406-63.45 9.567-42.58 14.658-83.79 20.596-101.74" fill="#994662" stroke="#000" stroke-width="22.559" stroke-miterlimit="1.5" stroke-linecap="round" stroke-linejoin="round"/><path fill-rule="evenodd" clip-rule="evenodd" d="M271.942 1450.5c37.865-19.85 281.482-77.32 302.1-63.13 6.61 4.54 18.55 2.13 32.865 5.25 11.242 2.42 26.143 10.92 26.143 10.92s-41.094 8.82-55.219 21.3c-29.755 26.27-68.62 67.71-89.361 78.48-35.37 18.39-155.02 17.38-155.02 17.38" fill="#994662"/><path d="M271.942 1450.5c37.865-19.85 281.482-77.32 302.1-63.13 6.61 4.54 18.55 2.13 32.865 5.25 11.242 2.42 26.143 10.92 26.143 10.92s-41.094 8.82-55.219 21.3c-29.755 26.27-68.62 67.71-89.361 78.48-35.37 18.39-155.02 17.38-155.02 17.38" stroke="#000" stroke-width="15.374" stroke-miterlimit="1.5" stroke-linecap="round" stroke-linejoin="round"/><path fill-rule="evenodd" clip-rule="evenodd" d="m265.849 1570.12 52.493-47.57s193.824-9.06 217.193 10.95c5.487 4.71 57.848 17.76 57.706 26.63-.212 14.11-56.599 26.17-65.786 41.89-9.627 16.46-22.412 30.79-34.666 36.73-31.314 15.15-178.205-11.14-178.205-11.14l-35.576 41.92s23.291-31.96 45.63-25.44c45.521 13.26 123.498 54.17 141.016 68.7 14.32 11.88 56.236 39.77 49.265 54.46-4.976 10.48-41.568-7.57-65.935 14.39-21.846 19.69-105.77-22.1-105.77-22.1l-33.955 30.9" fill="#994662"/><path d="m265.849 1570.12 52.493-47.57s193.824-9.06 217.193 10.95c5.487 4.71 57.848 17.76 57.706 26.63-.212 14.11-56.599 26.17-65.786 41.89-9.627 16.46-22.412 30.79-34.666 36.73-31.314 15.15-178.205-11.14-178.205-11.14l-35.576 41.92s23.291-31.96 45.63-25.44c45.521 13.26 123.498 54.17 141.016 68.7 14.32 11.88 56.236 39.77 49.265 54.46-4.976 10.48-41.568-7.57-65.935 14.39-21.846 19.69-105.77-22.1-105.77-22.1l-33.955 30.9" stroke="#000" stroke-width="15.374" stroke-miterlimit="1.5" stroke-linecap="round" stroke-linejoin="round"/><path fill-rule="evenodd" clip-rule="evenodd" d="M1919.44 1147.2c-15.83-19.48-84.56-4.84-84.56-4.84s8.08-104.55-27.69-127.77c-18.17-11.8-76.36-10.96-128.84-3.24-52.61 7.72-130.58 24.32-125.67 39.99 4.51 14.4 42.16 13.35 55.37 30.43 29.41 37.99 107.8 16.67 107.8 16.67l22.19 261.9s-57.46 70.24-121.33 76.24c-72.6 6.81-126.42-37.09-166.38-20.81-10.5 4.28-65.55 12.3-67.7 23.44-2.61 13.53 38.91 29.29 50.02 44.88 17.08 23.99 26.72 48.24 38.23 51.96 31.92 10.34 167.66 10.49 167.66 10.49 24.49 37.52 60.94 67.39 121.01 82.12-8.05 5.08 61.19 129.27 95.21 136.83 34.86 7.75 77.63 5.3 105.33-18.97 31.45-27.55 83.36-146.36 83.36-146.36s40.86-161.67 36.91-201.38c-3.01-30.41-26.97-29.67-38.64-59.78-8.51-21.97-7.79-35.39-14.47-50.86-11.02-25.5-44.22-19.94-57.46-48.17-19.02-40.58-38.02-77.61-50.35-92.77" fill="#994662" stroke="#000" stroke-width="22.916" stroke-miterlimit="1.5" stroke-linecap="round" stroke-linejoin="round"/><path fill-rule="evenodd" clip-rule="evenodd" d="M1902.12 1132.94c-18.84-1.45-118.91-3.58-158.48 6.24-52.87 13.11-138.73 56.97-144.41 69.97-6.83 15.7-47.21 52.33-38.2 55.16 7.21 2.27 63.28-2.12 87.19-1.96 50.98.35 120.82-19.8 131.02-22.65 46.89-13.08 89.6-16.83 89.6-16.83" fill="#994662"/><path d="M1902.12 1132.94c-18.84-1.45-118.91-3.58-158.48 6.24-52.87 13.11-138.73 56.97-144.41 69.97-6.83 15.7-47.21 52.33-38.2 55.16 7.21 2.27 63.28-2.12 87.19-1.96 50.98.35 120.82-19.8 131.02-22.65 46.89-13.08 89.6-16.83 89.6-16.83" stroke="#000" stroke-width="15.247" stroke-miterlimit="1.5" stroke-linecap="round" stroke-linejoin="round"/><path fill-rule="evenodd" clip-rule="evenodd" d="m1948.46 1241.66-64.95-23.14s-183.2 69.36-198.11 97.34c-7.06 13.26-64.76 45.97-49.79 61.89 8.45 8.99 50.27.09 73.68 3.64 22.59 3.43 42.77 14.71 51.62 15.11 34.25 1.52 161.82-81.85 161.82-81.85l47.31 24.67s-32.51-20.35-51.05-5.33c-37.8 30.59-96.35 99.9-107.68 120.43-10.67 19.34-29.77 81.69-14.47 92.25 7.45 5.13 43.9-35.52 53.37-34.96 28.9 1.74 118.08-70.22 118.08-70.22l25.81 18.89" fill="#994662"/><path d="m1948.46 1241.66-64.95-23.14s-183.2 69.36-198.11 97.34c-7.06 13.26-64.76 45.97-49.79 61.89 8.45 8.99 50.27.09 73.68 3.64 22.59 3.43 42.77 14.71 51.62 15.11 34.25 1.52 161.82-81.85 161.82-81.85l47.31 24.67s-32.51-20.35-51.05-5.33c-37.8 30.59-96.35 99.9-107.68 120.43-10.67 19.34-29.77 81.69-14.47 92.25 7.45 5.13 43.9-35.52 53.37-34.96 28.9 1.74 118.08-70.22 118.08-70.22l25.81 18.89" stroke="#000" stroke-width="15.247" stroke-miterlimit="1.5" stroke-linecap="round" stroke-linejoin="round"/><path fill-rule="evenodd" clip-rule="evenodd" d="m1912.92 1759.53 2.24-132.46 44.33-52.86 54.46-99.89-35.03-53.94-83.49 54.61c-30.76 14.35-66.71-17.54-75.11-43.58l91.34-108.58c-63.24 17.17-156.67 49.06-216.79-22.73l163.19-79.22c-117.23 17.67-217.93 22.96-237.68-33.08l112.46-58.39 72.89-8.3-9.31-71.74c-90.13 16.16-157.06 20.55-216.45-4.78-7.45 32.38 38.39 60.15 129.24 63.18l1.18 23.06-113.55 72.11c-26.49 77.13 54.32 73.53 130.57 52.82l3.65 22.85-53.03 31.49c-6.31 49.74 27.39 79.03 57.96 83.79l-6.72 31.81c-22.77 28.15-51.33 35.38-82.54 33.09-59.43 43.43-135.77 31.83-220.53-7.17-3.98 126.96 94.91 104.58 207.67 103.15 24.2 39.09 62.25 65.56 110.02 83.23 25.94 52.61 56.79 105.48 99.51 132.62 28.58 8.78 53.2 8.42 69.52-11.09M390.527 2010.74s74.306-9.32 61.329-59.17c-15.683-60.28-106.245-73.52-106.245-73.52 19.926-32.18 11.885-60.33-32.437-83.25l36.394-24.99 50.426 10.48s48.975-16.93 46.617-41.95c-1.172-12.43-14.396-40.1-41.051-61.54-27.055-21.76-67.546-37.21-67.546-37.21l100.757-2.18s59.541-18.51 68.143-69.27c3.147-18.53-90.119-41.28-90.119-41.28s117.446-59.4 121.276-106.51c1.669-20.56-119.407-17.19-119.407-17.19l-21.752-53.31 16.657-40.56c61.713-12.93 91.378-30 113.786-48.01-9.931 33.13-45.483 63.96-85.58 74.65l6.831 59.3 119.233-.27s5.511 43.54-35.248 74.09c-26.149 19.62-109.465 59.44-109.465 59.44s104.31-1.37 110.054 16.6c5.732 17.96-17.884 85.47-17.884 85.47l91.897 41c35.605 15.21 84.422-14.15 140.688-54.15 17.924-12.74 45.79-13.66 66.377-33.52l-9.821 50.29c-40.442 34.74-92.285 60.77-149.204 82.9-19.956 59.05-47.927 108.62-90.827 140.54-4.815 77.16-26.638 135.34-67.507 172.29-44.422 5.68-82.823 7.28-106.372-19.17" fill="#8DCCB5" fill-opacity=".5"/><path fill-rule="evenodd" clip-rule="evenodd" d="M1568.61 1538.85c12.2-27.85-2.21-93.64 3.5-112.82 2.92-9.83 28.59-12.26 30.65-2.24 4.24 20.59 7.9 94.06-5.25 125.67l-192.78 1265.61-30.25-5.53 193.08-1267.31c.22-1.17.59-2.3 1.05-3.38Z" fill="#fff" stroke="#000" stroke-width="3.013" stroke-miterlimit="2" stroke-linejoin="round"/><path fill-rule="evenodd" clip-rule="evenodd" d="m1687.21 1360 23.36 25.64-402.85 1330.48c-1.6 4.39-5.11 7.84-9.56 9.31l-283.8 95.39a15.47 15.47 0 0 1-16.351-4.3c-4.089-4.55-5.073-11.13-2.521-16.7L1601.72 1260c8.85 5.08 18.75 8.12 29.14 10.18l-592.58 1510.15 243.06-81.67zm65.22-92.89-43.03 19.61 17.12-36.43c.98-2 2.4-3.72 4.12-5.1l33.26-26.53c.68-15.25-5.53-27.61-12.33-39.23-6.42-11-25.48-36.3-24.99-46.17.46-9.84 19.49-18.78 27.88-12.91 9.41 6.58 21.52 38.86 28.5 52.35 8.52 16.39 14.08 34.43 10.79 56.26-.58 3.81-2.58 7.28-5.59 9.71zm-69.84-113.22-42.08 17.33 13.55-28.77c13.19-32.92 24.32-34.8 67.66-73.81 1.85-10.17-20.19-64.58-17.58-76.939 2.12-10.022 25.24-15.278 30.1-6.271 7.19 13.341 20.74 78.85 16.23 95.42-.77 2.83-2.34 5.38-4.49 7.34-17.52 15.93-29.88 25.55-39.2 33.42-11.68 9.84-17.76 16.26-24.19 32.28Z" fill="#fff" stroke="#000" stroke-width="3.013" stroke-miterlimit="2" stroke-linejoin="round"/><path fill-rule="evenodd" clip-rule="evenodd" d="M1924.89 1443.22c-5.07-37.48-54.44-49.22-61.94-64.16-4.58-9.19 11.56-27.97 16.97-25.64 17.36 7.44 71.1 36.22 75.99 90.66.21 2.46-.16 4.95-1.11 7.25l-471.37 1357.53c-2.25 5.38-7.29 9.04-13.07 9.47l-272.94 20.41c-5.53.43-10.88-2.18-13.96-6.82a15.32 15.32 0 0 1-.86-15.5l628.52-1450.05c10.17-32.87 2.46-53.06-6.09-70.09-4.58-9.07-23.36-36.95-21.61-45.53 1.79-8.54 24.63-20.35 28.71-10.94 8.86 20.13 47.37 76.2 27.92 137.1-.28.8-.59 1.57-.99 2.31l-616.62 1426.81 236.21-17.67zM687.15 1577.98c-.273-10.69 21.018-27.14 26.56-18.01 9.477 15.65 13.268 77.22 30.304 111.89 75.603 153.89 438.796 1064.02 438.796 1064.02 2.06 3.97 2.31 8.64.65 12.79a15.46 15.46 0 0 1-9.25 8.85l-216.692 42.49c-7.808 2.67-16.354-1.29-19.336-9.01L563.344 1587.08l27.623-13.8 370.548 1192.85 185.795-31.88s-356.285-897.65-430.4-1048.28c-16.486-33.5-29.228-86.99-29.76-107.99Zm-110.109-36.49-36.08-12.32-15.078-39.01 25.711-18.75zm-62.088-158.62-38.349 6.67-19.053-28.19s-22.397-8.42-29.375-17.39c-13.784-17.77-48.013-68.89-52.504-86.39-2.549-9.92 18.727-22.59 26.378-15.76 12.785 11.37 35.984 64.27 49.498 81.33 7.399 9.32 30.762 18.17 30.762 18.17zm-31.337 265.97c10.138-1.14 19.271-6.03 27.749-13.34l386.302 1159.56a15.37 15.37 0 0 1-2.459 15.83 15.32 15.32 0 0 1-15.186 5.07l-92.175-21.24a15.42 15.42 0 0 1-10.685-8.98l-325.295-996.79c8.577-4.73 16.781-11.31 24.27-21.45l326.238 999 55.391 12.79zm-10.805-134.77-36.75.77s-64.152-83.64-72.271-104.55c-3.71-9.56 17.993-24.5 25.355-17.37 18.469 17.86 83.666 121.15 83.666 121.15Zm-22.825 179.16-44.171-24.1-31.088-45.65c-2.616-4.61-3.234-67.88-.704-85.61 1.836-12.85 8.611-32.13 15.739-35.63 7.129-3.47 23.747 9.96 27.033 14.63 2.939 4.21-6.744 8.42-7.319 13.53-1.853 16.47-3.809 85.3-3.809 85.3zm-83.191-39.81c4.838-9.04 25.65 2.18 30.218 5.66 4.082 3.07-16.951 90.71-16.951 90.71l299.734 952.59-28.373 11.83-301.498-956.8a15.47 15.47 0 0 1-.923-8.76s9.791-80.29 17.793-95.23Z" fill="#fff" stroke="#000" stroke-width="3.013" stroke-miterlimit="2" stroke-linejoin="round"/></g><path fill-rule="evenodd" clip-rule="evenodd" d="M1076.55 567.691c242.53 0 791.42 205.578 888.71 511.539 37.17 116.88-281.41 253.78-281.41 391.55 0 138.38-14.21 271.56-45.54 390.67-26.11 99.28-163.63 177.16-215.21 251.77-47.77 69.11-7.98 136.97-73.8 178.4-84.94 53.45-180.04 82.25-272.75 82.25-96.18 0-187.16-33.32-268.017-92.61-55.777-40.9-27.298-99.93-71.809-163.14-51.031-72.47-173.034-152.25-204.686-247.25-40.191-120.62-62.788-256.46-62.788-400.09 0-92.94-298.135-279.23-280.565-363.63 76.649-368.244 615.188-539.459 887.865-539.459m3.28 71.035c-284.606 0-515.671 263.164-515.671 587.304 0 324.15 231.065 587.31 515.671 587.31 284.61 0 515.68-263.16 515.68-587.31 0-324.14-231.07-587.304-515.68-587.304" fill="#EFE313" stroke="#7EED56" stroke-width="16.178" stroke-miterlimit="1.5" stroke-linecap="round" stroke-linejoin="round"/><path fill-rule="evenodd" clip-rule="evenodd" d="M1078.81 598.357c306.01 0 541.3 276.426 541.3 623.733 0 347.3-234.52 677.27-540.53 677.27-306.006 0-544.111-324.02-544.111-671.33 0-347.305 237.335-629.673 543.341-629.673Zm0 31.898c-289.58 0-523.612 267.769-523.612 596.435 0 328.67 234.032 596.44 523.612 596.44s523.61-267.77 523.61-596.44c0-328.666-234.03-596.435-523.61-596.435Z" fill="#F2E83A" stroke="#7EED56" stroke-width="7.001" stroke-miterlimit="2" stroke-linejoin="round"/><path d="M1073.12 1909.41c308.27 0 558.16-288.17 558.16-643.64s-249.89-643.635-558.16-643.635c-308.256 0-558.151 288.165-558.151 643.635s249.895 643.64 558.151 643.64" fill="#F2E83A"/><path fill-rule="evenodd" clip-rule="evenodd" d="M1073.13 622.131c308.05 0 558.15 288.4 558.15 643.639 0 355.23-250.1 643.63-558.15 643.63-308.06 0-558.161-288.4-558.161-643.63 0-355.239 250.101-643.639 558.161-643.639m0 94c-260.135 0-464.161 249.669-464.161 549.639 0 299.96 204.026 549.63 464.161 549.63 260.13 0 464.15-249.67 464.15-549.63 0-299.97-204.02-549.639-464.15-549.639" fill="#FF050B"/><path fill-rule="evenodd" clip-rule="evenodd" d="M1098.62 1365.28c-50.07 11.41-157.223 23.08-208.64 27.66l48.416-92.2c139.424-12.43 275.324-50.09 395.624-149.62l-44.93-132.09c-57.31-17.13-130.13-9.17-202.72 8.68-109.968 27.05-219.766 78.89-280.442 120.66l40.782 89.81-90.493 68.29-51.115-154.06c-8.187-18.73-3.335-40.6 12.002-54.1 56.175-49.47 200.877-125.98 346.806-161.88 102.46-25.2 205.27-29.47 280.94 2.95a47 47 0 0 1 25.98 28.07l62.33 183.24c6 17.64 1.01 37.17-12.72 49.77-72.47 66.47-150.34 110.05-231.48 138.8l31.39 82.33-93.41 97.75zm61.48 266.6-25.54-76.7 102.77-101.63 50.55 139.04z" fill="#FF050B"/><path clip-rule="evenodd" d="M1076.85 507.965c261.79 0 854.24 221.893 959.25 552.135 40.12 126.16-303.75 273.92-303.75 422.63 0 149.36-15.34 293.11-49.15 421.67-28.19 107.17-176.61 191.23-232.29 271.76-51.56 74.59-8.61 147.84-79.66 192.55-91.68 57.69-194.33 88.78-294.4 88.78-103.807 0-202.008-35.96-289.282-99.96-60.203-44.15-29.465-107.86-77.508-176.09-55.081-78.22-186.767-164.33-220.931-266.87-43.381-130.19-67.771-276.81-67.771-431.84 0-100.32-321.797-301.39-302.833-392.5 82.733-397.462 664.013-582.265 958.325-582.265" stroke="#7EED56" stroke-width="17.462" stroke-miterlimit="1.5" stroke-linecap="round" stroke-linejoin="round"/><path fill-rule="evenodd" clip-rule="evenodd" d="M2390.71-314.338V3049.82H-226.695V-314.338zM1092.97-72.077l-28.7 474.554-28.7-474.554-114.972 10.183 28.701 474.554-85.493-464.44-112.521 30.332 85.493 464.44-230.431-702.516-107.672 49.834 230.431 702.517-282.407-673.032L346.17-111.93l282.407 673.032L298.296-73.601l-168.322-.6 327.7 547.747L26.239-87.106l-89.83 156.58 342.23 448.584-374.55-364.561-9.359 220.889L187.428 670.63l-237.76-146.395 38.178 242.51 141.982 115.454-164.433-51.521-37.221 132.031 372.14 153.631-386.66-86.42-20.939 137.18 237.04 64.74-243.318 4.31-4.21 139.41 392.938 17.37-390.842 52.05 12.609 138.66 297.138-29.2-286.712 97.51 29.158 134.97 380.415-120.35-361.88 186.09 45.086 128.4 361.88-186.1-468.276 376.12 61.05 110.78 347.662-261.68-304.6 310.35-71.42 203.4 397.13-294.08-409.8 450.43 123.036 141.71 544.869-717.63-382.359 658.09 114.801 21.59 303.051-475.74-122.422 397.27 120.554-34.19 166.897-430.84-113.281 455.65 110.391 40.19 104.89-320.89-48.86 336 114.051 20.31 57.249-470.75v475.82h115.28l14.25-327.09 43 322.02 114.05-20.31-28.78-343.77 84.81 328.66 110.39-40.19-63.43-257.82 117.05 233.01 127.86 73.27-156.23-445.32 244.47 441.52 133.69 3.57-316.17-640.06 416.1 582.49 240.91 78.11-512.85-692.61 518.56 490.66 38.97-117.32-542.09-541.65 517.79 399.31 46.74-165.18-420.46-293.91 277.86 126.8 45.09-128.4-361.88-186.09 380.41 120.35 29.16-134.97-319.77-109.3 330.2 40.99 12.6-138.66-390.84-52.05 392.94-17.37-4.21-139.41-392.94 17.38 386.66-86.43-20.94-137.18-386.66 86.42 372.14-153.631-37.22-132.031L1791 984.312l349.69-217.567 106.36-188.04-316.87 99.983 318.3-211.929-32.52-166.87-505.84 330.941 506.32-458.226 36.4-256.209-433.55 410.563 400.54-530.321-314.72 141.36-217.02 277.551 119.31-250.75-118.83-44.415-211.51 372.579 105.28-338.696-150.12 44.3-66.34 291.618 11.37-311.632-112.52-30.332-55.51 248.381-1.28-258.495z" fill="#FF050B" fill-opacity=".12"/><path fill-rule="evenodd" clip-rule="evenodd" d="M2390.71-314.338V3049.82H-226.695V-314.338zm-7 7H-219.695V3042.82H2383.71zM1093.59-79.05l114.97 10.183a7 7 0 0 1 6.38 6.938l.97 196.49 41.99-187.868a7.03 7.03 0 0 1 3.21-4.463 7 7 0 0 1 5.44-.769l112.53 30.332a7.004 7.004 0 0 1 5.17 7.014l-8.65 237.119 49.8-218.914a6.99 6.99 0 0 1 4.84-5.16l150.12-44.3a6.998 6.998 0 0 1 8.66 8.792L1503 233.085l179.48-316.158a7 7 0 0 1 8.54-3.1l118.83 44.413a7 7 0 0 1 4.04 3.931 6.96 6.96 0 0 1-.17 5.634l-92.01 193.388L1899.6-66.314c.7-.896 1.6-1.608 2.64-2.074l314.72-141.36a6.998 6.998 0 0 1 8.45 10.604l-349.75 463.076 372.36-352.62a7.01 7.01 0 0 1 8.03-1.136 6.99 6.99 0 0 1 3.72 7.203l-36.4 256.21a7 7 0 0 1-2.23 4.205l-440.02 398.217 431.01-281.979a6.99 6.99 0 0 1 6.55-.591 6.98 6.98 0 0 1 4.15 5.11l32.52 166.869c.54 2.773-.64 5.6-2.99 7.165l-277.22 184.576 269.8-85.132a7.01 7.01 0 0 1 7.55 2.27 6.99 6.99 0 0 1 .65 7.852l-106.36 188.04a6.9 6.9 0 0 1-2.39 2.498l-277.83 172.855 293.91-121.337a7.004 7.004 0 0 1 9.41 4.571l37.22 132.031a6.99 6.99 0 0 1-4.07 8.37l-296.92 122.581 307.25-68.67c1.89-.43 3.87-.05 5.47 1.05 1.6 1.09 2.68 2.8 2.97 4.72l20.94 137.18c.56 3.64-1.8 7.09-5.39 7.89l-309.1 69.09 313.54-13.87c1.87-.08 3.7.59 5.07 1.87a6.97 6.97 0 0 1 2.24 4.92l4.21 139.41a7.01 7.01 0 0 1-6.69 7.2l-313.93 13.88 312.45 41.61c3.72.49 6.39 3.83 6.05 7.57l-12.61 138.67a7.02 7.02 0 0 1-2.58 4.81 7.02 7.02 0 0 1-5.26 1.5l-262.94-32.64 255.64 87.38a7 7 0 0 1 4.58 8.1l-29.16 134.97a6.94 6.94 0 0 1-3.33 4.57 6.96 6.96 0 0 1-5.62.62l-301.42-95.36 288.2 148.21a6.99 6.99 0 0 1 3.4 8.54l-45.08 128.39a7.04 7.04 0 0 1-3.87 4.13c-1.81.77-3.86.74-5.65-.08l-208.06-94.94 357.58 249.96a7 7 0 0 1 2.73 7.64L2231 2315.26a6.993 6.993 0 0 1-11.01 3.63l-431.35-332.65 464.87 464.5a6.98 6.98 0 0 1 1.69 7.15l-38.96 117.32c-.76 2.28-2.62 4-4.94 4.59-2.32.58-4.78-.06-6.52-1.71l-460.82-436.03 465.55 628.74a6.99 6.99 0 0 1 .05 8.25 6.99 6.99 0 0 1-7.84 2.57l-240.91-78.12a6.97 6.97 0 0 1-3.54-2.59l-365.81-512.09 277.86 562.5a7.005 7.005 0 0 1-6.46 10.1l-133.7-3.57a7 7 0 0 1-5.93-3.61l-204.27-368.9 128.76 366.99c.97 2.76.12 5.83-2.13 7.7a6.99 6.99 0 0 1-7.96.69l-127.87-73.27a7 7 0 0 1-2.77-2.93l-89.14-177.46 48.58 197.46a7.006 7.006 0 0 1-4.41 8.25l-110.39 40.19a6.997 6.997 0 0 1-9.17-4.83l-64.16-248.64 21.88 261.41c.3 3.61-2.19 6.84-5.75 7.48l-114.05 20.31c-1.88.34-3.81-.11-5.35-1.24a6.98 6.98 0 0 1-2.81-4.73l-32.51-243.5-10.81 247.95a7 7 0 0 1-6.99 6.7h-115.28a6.994 6.994 0 0 1-6.999-7v-360.28l-43.301 356.05a7.03 7.03 0 0 1-2.787 4.79 7 7 0 0 1-5.389 1.26l-114.051-20.31a7 7 0 0 1-5.7-7.9l37.143-255.42-79.592 243.5a6.996 6.996 0 0 1-9.049 4.4l-110.391-40.19a7 7 0 0 1-4.398-8.27l86.488-347.88-126.784 327.29a7.01 7.01 0 0 1-4.617 4.2l-120.553 34.2a7.01 7.01 0 0 1-6.916-1.84 7.01 7.01 0 0 1-1.684-6.96l107.145-347.7-275.181 431.99a6.995 6.995 0 0 1-7.197 3.11l-114.801-21.58a7.01 7.01 0 0 1-5.071-3.96 7.02 7.02 0 0 1 .312-6.44l325.278-559.85-476.16 627.14a7 7 0 0 1-5.346 2.77 7 7 0 0 1-5.515-2.41l-123.037-141.71a7 7 0 0 1 .108-9.3l361.684-397.55-339.67 251.54a6.99 6.99 0 0 1-8.32 0 6.995 6.995 0 0 1-2.45-7.95l71.42-203.39c.34-.97.89-1.85 1.609-2.59L232 2081.97l-273 205.48a6.98 6.98 0 0 1-5.674 1.26 7 7 0 0 1-4.665-3.47l-61.051-110.79a6.99 6.99 0 0 1 1.747-8.83l414.346-332.8L3.338 1987.28a6.98 6.98 0 0 1-5.792.28 7 7 0 0 1-4.014-4.19l-45.086-128.39a6.994 6.994 0 0 1 3.403-8.54l288.201-148.21-301.423 95.36c-1.878.6-3.92.37-5.624-.62a6.98 6.98 0 0 1-3.33-4.57l-29.157-134.97a6.994 6.994 0 0 1 4.588-8.1l229.306-77.99-236.794 23.27a7 7 0 0 1-5.146-1.57 7.02 7.02 0 0 1-2.51-4.76l-12.608-138.67a6.993 6.993 0 0 1 6.047-7.57l312.452-41.61-313.933-13.88a7 7 0 0 1-6.688-7.2l4.21-139.41c.113-3.74 3.138-6.73 6.873-6.79l194.419-3.45-189.861-51.85a7 7 0 0 1-5.076-7.81l20.939-137.18a6.98 6.98 0 0 1 2.969-4.72 6.95 6.95 0 0 1 5.478-1.05l307.243 68.67-296.922-122.581a7 7 0 0 1-4.066-8.37l37.22-132.031a7.004 7.004 0 0 1 8.832-4.78L97.1 864.609l-113.672-92.433a7 7 0 0 1-2.498-4.342l-38.177-242.51a7.002 7.002 0 0 1 10.585-7.049l188.224 115.894-251.813-254.864a7 7 0 0 1-2.014-5.216l9.36-220.889a6.999 6.999 0 0 1 11.876-4.72l306.516 298.343L-69.157 73.72a7 7 0 0 1-.506-7.73l89.83-156.579a7 7 0 0 1 11.62-.786l358.377 465.713L123.967-70.607a7 7 0 0 1 6.032-10.594l168.322.6a7 7 0 0 1 6.184 3.77l252.011 484.289-216.801-516.679a7 7 0 0 1 2.522-8.499l100.529-68.275a7 7 0 0 1 10.388 3.082l215.02 512.434-176.15-537.029a7 7 0 0 1 3.711-8.534l107.672-49.835a7.002 7.002 0 0 1 9.592 4.171l198.137 604.061L744.4-20.181a7 7 0 0 1 5.063-8.026l112.521-30.332a7 7 0 0 1 8.706 5.492l64.682 351.381L913.61-61.472a7 7 0 0 1 6.37-7.395l114.97-10.183a7 7 0 0 1 5.18 1.67 6.95 6.95 0 0 1 2.42 4.88l21.72 359.028L1085.98-72.5a7.03 7.03 0 0 1 2.42-4.88 7 7 0 0 1 5.19-1.67m-.62 6.973-28.7 474.554-28.7-474.554-114.972 10.183 28.701 474.554-85.493-464.44-112.521 30.332 85.493 464.44-230.431-702.516-107.672 49.834 230.431 702.517-282.407-673.032L346.17-111.93l282.407 673.032L298.296-73.601l-168.322-.6 327.7 547.747L26.239-87.106l-89.83 156.58 342.23 448.584-374.55-364.561-9.359 220.889L187.428 670.63l-237.76-146.395 38.178 242.51 141.982 115.454-164.433-51.521-37.221 132.031 372.14 153.631-386.66-86.42-20.939 137.18 237.04 64.74-243.318 4.31-4.21 139.41 392.938 17.37-390.842 52.05 12.609 138.66 297.138-29.2-286.712 97.51 29.158 134.97 380.415-120.35-361.88 186.09 45.086 128.4 361.88-186.1-468.276 376.12 61.05 110.78 347.662-261.68-304.6 310.35-71.42 203.4 397.13-294.08-409.8 450.43 123.036 141.71 544.869-717.63-382.359 658.09 114.801 21.59 303.051-475.74-122.422 397.27 120.554-34.19 166.897-430.84-113.281 455.65 110.391 40.19 104.89-320.89-48.86 336 114.051 20.31 57.249-470.75v475.82h115.28l14.25-327.09 43 322.02 114.05-20.31-28.78-343.77 84.81 328.66 110.39-40.19-63.43-257.82 117.05 233.01 127.86 73.27-156.23-445.32 244.47 441.52 133.69 3.57-316.17-640.06 416.1 582.49 240.91 78.11-512.85-692.61 518.56 490.66 38.97-117.32-542.09-541.65 517.79 399.31 46.74-165.18-420.46-293.91 277.86 126.8 45.09-128.4-361.88-186.09 380.41 120.35 29.16-134.97-319.77-109.3 330.2 40.99 12.6-138.66-390.84-52.05 392.94-17.37-4.21-139.41-392.94 17.38 386.66-86.43-20.94-137.18-386.66 86.42 372.14-153.631-37.22-132.031L1791 984.312l349.69-217.567 106.36-188.04-316.87 99.983 318.3-211.929-32.52-166.87-505.84 330.941 506.32-458.226 36.4-256.209-433.55 410.563 400.54-530.321-314.72 141.36-217.02 277.551 119.31-250.75-118.83-44.415-211.51 372.579 105.28-338.696-150.12 44.3-66.34 291.618 11.37-311.632-112.52-30.332-55.51 248.381-1.28-258.495z" fill="#fff" fill-opacity=".62"/><path fill-rule="evenodd" clip-rule="evenodd" d="m149.979 281.204-38.044 22.599-59.125-16.757s172.178-134.82 172.176-134.82c-62.36 15.607-158.74 20.705-205.9-7.964l58.343-50.955c34.717 9.89 73.966 13.862 117.397 12.534-9.747-3.992-17.055-9.961-22.578-17.16-10.291-13.41-14.244-32.74-12.402-55.67l47.846 3.845c-.998 12.424-2.156 23.8 10.107 25.822l-6.994 42.448c26.969-1.58 55.464-5.083 85.405-10.371a24 24 0 0 1 19.936 41.732l-110.552 96.281c26.018 20.988 55.689 34.693 90.388 38.365l-5.052 47.733c-34.601-3.661-65.366-14.973-92.996-32.538l14.49 194.157-70.139 70.274zm214.63-121.787-3.398-39.84 4.877-.416.148-4.04 33.007 1.212 153.72-13.111a23.998 23.998 0 0 1 25.882 26.658l-11.764 102.197a24 24 0 0 1-26.737 21.08L376.08 233.2l1.852-15.244-15.451-.567zm46.941 29.74 110.608 13.437 5.646-49.052-115.308 9.835zm-36.999 297.117a449 449 0 0 0 8.377 28.425l-52.654 26.448c-26.725-80.806-25.566-178.323-7.402-270.604l28.503 5.611.052-.88c83.052 4.929 171.048 4.028 263.336-1.909a24.002 24.002 0 0 1 25.096 28.552l-43.68 238.003-47.99-34.937s3.598-2.58 7.027-20.136zm-11.334-162.277c-4.25 39.351-3.58 77.442 1.714 114.351l89.489.172-7.418-42.074-35.361.375-33.313-30.829 62.203.354-7.703-38.486 59.759 28.354-.132 8.212 72.231-1.599-36.549 28.821-36.423 1.618-.354 44.084 73.248-.578 22.209-113.689c-77.755 4.097-152.416 4.547-223.6.914M334.095 88.896l-43.011-52.283c74.095 12.225 250.152 8.114 338.098-13.152L596.154 82.2c-94.787 13.062-182.346 19.847-262.059 6.695" fill="#fff"/><path fill-rule="evenodd" clip-rule="evenodd" d="M155.489 90.506c-8.774-15.295-12.469-35.368-10.594-58.694.663-8.258 7.895-14.414 16.153-13.751l47.845 3.844c8.258.664 14.414 7.895 13.751 16.153-.251 3.128-.292 7.8-.293 10.326 6.99 2.216 11.476 9.286 10.248 16.734l-3.895 23.64c20.777-1.857 42.421-4.804 64.897-8.774a39 39 0 0 1 13.765.033L279.5 46.144a15 15 0 0 1 14.026-24.33c72.787 12.009 245.736 7.959 332.13-12.932a15.001 15.001 0 0 1 16.601 21.932l-33.028 58.74a15 15 0 0 1-11.027 7.508q-8.022 1.106-15.975 2.148.383.374.757.759a39 39 0 0 1 10.763 31.627l-11.765 102.197a39 39 0 0 1-16.029 27.242 2570 2570 0 0 0 47.848-2.638 39 39 0 0 1 40.799 46.297l-43.668 237.935a15 15 0 0 1-23.582 9.419l-47.989-34.937a15 15 0 0 1-5.325-17.095l-139.697 1.103a439 439 0 0 0 2.83 8.871 15 15 0 0 1-7.509 18.114l-52.653 26.448a14.998 14.998 0 0 1-20.974-8.694c-21.33-64.495-25.546-139.34-17.627-213.985a14.93 14.93 0 0 1-9.054 1.911c-26.864-2.843-51.566-9.994-74.393-20.887l12.423 166.473a15 15 0 0 1-4.341 11.713l-70.14 70.273a15 15 0 0 1-25.61-11.024l6.916-242.312-14.611 8.68a15 15 0 0 1-11.751 1.535L48.72 301.479a15 15 0 0 1-5.158-26.242l125.233-98.061c-25.085 2.685-51.365 3.533-75.917 1.73-31.94-2.346-61.009-9.319-81.584-21.826a15 15 0 0 1-2.075-24.115L67.562 82.01a15 15 0 0 1 13.977-3.128c22.672 6.459 47.359 10.255 73.95 11.624M309.28 264.19c2.848-6.106 9.581-9.724 16.489-8.364l23.431 4.612a15 15 0 0 1 3.116-.137c47.109 2.795 95.82 3.699 146.012 2.862l-124.057-15.072c-7.911-.961-13.632-7.917-13.166-15.765-7.879-.719-13.908-7.486-13.614-15.488l2.095-57.057-3.32-38.929c-.499-5.845 2.425-11.193 7.106-14.067a504 504 0 0 1-16.535-2.263c5.774 15.158 1.562 32.477-10.839 43.277l-96.386 83.942c20.134 13.175 42.558 21.788 67.948 24.475 5.185.549 9.472 3.677 11.72 7.974m24.815-175.294c79.713 13.152 167.272 6.367 262.059-6.695l33.028-58.74c-87.946 21.266-264.003 25.377-338.098 13.152zM149.979 281.205l-7.694 269.555 70.139-70.274-14.49-194.157c27.63 17.565 58.395 28.877 92.996 32.538l5.052-47.733c-34.699-3.672-64.37-17.377-90.388-38.365l110.552-96.281a24 24 0 0 0-19.936-41.732c-29.941 5.288-58.436 8.791-85.405 10.371l6.994-42.448c-12.263-2.021-11.105-13.398-10.107-25.822l-47.846-3.844c-1.842 22.929 2.111 42.26 12.402 55.67 5.523 7.198 12.831 13.167 22.578 17.159-43.431 1.328-82.68-2.644-117.397-12.534l-58.343 50.955c47.161 28.669 143.54 23.571 205.9 7.964.002 0-172.176 134.82-172.176 134.82l59.125 16.757zm214.63-121.787-2.128 57.972 15.451.567-1.852 15.244 164.264 19.957a24 24 0 0 0 26.737-21.08l11.764-102.197a23.998 23.998 0 0 0-25.882-26.658l-153.72 13.111-33.007-1.212-.148 4.04-4.877.416zm46.941 29.74.946-25.78 115.308-9.835-5.646 49.052zm21.597-12.487 75.835 9.214 1.823-15.838zm-58.596 309.604 180.665-1.427c-3.429 17.556-7.027 20.136-7.027 20.136l47.99 34.937 43.68-238.003a23.998 23.998 0 0 0-25.096-28.552c-92.288 5.937-180.284 6.838-263.336 1.909l-.052.88-28.503-5.611c-18.164 92.281-19.323 189.798 7.402 270.604l52.654-26.448a449 449 0 0 1-8.377-28.425m211.871-163.17.047 1.761-21.861 111.907-73.248.578.354-44.084 36.423-1.618 36.549-28.821-72.231 1.599.132-8.212-59.759-28.354 7.703 38.486-62.203-.354 33.313 30.829 35.361-.375 7.418 42.074-89.489-.172c-5.294-36.909-5.964-75-1.714-114.351 71.064 3.627 145.593 3.184 223.205-.893M420.166 341.03q-21.874-.449-43.342-1.375-.45 5.774-.753 11.508a15 15 0 0 1 2.342-.17l43.797.249zm-44.637 42.81a431 431 0 0 0 2.607 39.534l58.402.113-2.099-11.906-22.638.241a15 15 0 0 1-10.348-3.991zm192.895-44.837a2406 2406 0 0 1-72.47 2.207l3.063 1.453a15 15 0 0 1 6.79 6.465l58.547-1.297q1.178-.024 2.32.128zm-9.233 47.26-21.766 17.164a15 15 0 0 1-8.623 3.207l-22.203.986-.117 14.611 45.753-.361zM1626.65 2381.54l-38.04 22.6-59.13-16.75 172.18-134.82c-62.36 15.6-158.74 20.7-205.9-7.97l58.34-50.95c34.72 9.89 73.97 13.86 117.4 12.53-9.75-3.99-17.06-9.96-22.58-17.16-10.29-13.41-14.24-32.74-12.4-55.67l47.84 3.85c-.99 12.42-2.15 23.8 10.11 25.82l-6.99 42.45c26.97-1.58 55.46-5.09 85.4-10.38a24.006 24.006 0 0 1 19.94 41.74l-110.55 96.28c26.01 20.99 55.68 34.69 90.38 38.36l-5.05 47.74c-34.6-3.67-65.36-14.98-92.99-32.54l14.49 194.15-70.14 70.28zm212.83 69.87c-11.79 66.3 6.12 135.73 21.09 206.54l-76.65-51.58c-9.1-75.08 9.25-171.79 17.16-248.12l34.09 31.9 13.66-1.02c-2.76-85.05-11.58-169.45-38.89-251.82l69.78 34.93 198.03-23.58c8.4-.51 16.63 2.53 22.68 8.39a29.95 29.95 0 0 1 9.13 22.38c-1.8 65.31-8.32 130.04-32.77 192.75l11.89-.89c7.96-.59 15.83 2.02 21.87 7.25a30.03 30.03 0 0 1 10.28 20.61c5.9 85.87.48 206.01-36.21 277.63l-58.18-51.3c28.25-55.15 36.27-121.42 35.67-192.04zm148.74-140.26-.19-3.44c-3.34 4.25-3.08 4.41.19 3.44m0 0 3.66 67.34 17.62-1.31-.38-.19c11.4-22.88 21.27-39.55 27.16-63.08-24.36-10.69-41.78-4.62-48.06-2.76m-79.35 73.52 23.17-1.73-5.63-103.33c-.44-8.19 2.48-16.2 8.09-22.17a30.02 30.02 0 0 1 21.62-9.46l89.04-.75c1.37-12.18 2.35-24.41 3.06-36.66l-161.46 6.94zm-2.84 207.46-29.73 25.86-9.97-145.58 143.97-10.61c9.15-.74 18.13 2.76 24.38 9.48a30 30 0 0 1 7.66 25.01l-9.87 70.45c-2.28 14.71-15.01 25.53-29.9 25.4zm18.8-69.24.81 30.56 53.62-19.17-.04-15.74z" fill="#000"/><path fill-rule="evenodd" clip-rule="evenodd" d="M1662.8 2270.3c-29.9 4.34-62.71 6.17-92.88 3.96-31.06-2.28-59.35-8.95-79.36-21.11a10.03 10.03 0 0 1-4.77-7.69c-.27-3.18.99-6.29 3.39-8.39l58.34-50.95a10 10 0 0 1 9.32-2.09c25.82 7.36 54.21 11.32 85.03 12.21-.3-.38-.59-.75-.88-1.13-11.59-15.1-16.51-36.75-14.44-62.56.44-5.5 5.26-9.61 10.77-9.17l47.84 3.85c5.51.44 9.61 5.26 9.17 10.77-.35 4.32-.79 8.49-.42 12.06.1 1.01.1 1.97.63 2.64.3.38.88.34 1.56.45 5.45.9 9.14 6.05 8.24 11.49l-4.94 29.98c22.86-1.81 46.79-4.97 71.74-9.37 15.04-2.66 30.01 5.04 36.59 18.82 6.59 13.79 3.17 30.27-8.34 40.3l-101.28 88.2c22.17 15.69 47.07 25.94 75.6 28.96 5.49.58 9.47 5.5 8.89 11l-5.05 47.73c-.58 5.49-5.51 9.47-11 8.89-29.36-3.11-56.09-11.48-80.56-24.33l13.08 175.26c.21 2.9-.84 5.75-2.9 7.81l-70.14 70.27a9.995 9.995 0 0 1-11.03 2.12 10 10 0 0 1-6.04-9.47l7.18-251.39-22.43 13.32a10 10 0 0 1-7.83 1.02l-59.13-16.75c-3.62-1.03-6.35-4-7.08-7.69-.73-3.7.68-7.49 3.65-9.81 0 0 89.54-70.11 139.48-109.21m-36.15 111.24-7.69 269.56 70.14-70.27-14.49-194.16c27.63 17.56 58.39 28.88 92.99 32.54l5.05-47.74c-34.7-3.67-64.37-17.37-90.38-38.36l110.55-96.28a24.005 24.005 0 0 0 5.89-28.45c-4.65-9.72-15.21-15.16-25.83-13.28-29.94 5.28-58.43 8.79-85.4 10.37l6.99-42.45c-12.26-2.02-11.1-13.4-10.11-25.82l-47.84-3.85c-1.84 22.93 2.11 42.26 12.4 55.67 5.52 7.2 12.83 13.17 22.58 17.16-43.43 1.33-82.68-2.64-117.4-12.53l-58.34 50.95c47.16 28.67 143.54 23.57 205.9 7.97l-172.18 134.82 59.13 16.75zm211.84-1.98c-3.09-80.75-12.1-160.85-38.04-239.1a10.002 10.002 0 0 1 13.97-12.09l67.1 33.59 195.05-23.23c.19-.02.38-.04.58-.05 11.2-.68 22.17 3.38 30.24 11.18a40 40 0 0 1 12.17 29.85c-1.69 61.4-7.58 122.28-28.08 181.51 9.38.13 18.46 3.57 25.61 9.76a40 40 0 0 1 13.72 27.49c6.01 87.5.1 209.88-37.29 282.87a10.03 10.03 0 0 1-7.04 5.27c-3.03.57-6.16-.29-8.48-2.33l-58.17-51.29a9.995 9.995 0 0 1-2.29-12.06c4.93-9.63 9.22-19.6 12.94-29.89-7.3 6.98-17.19 11.18-27.94 11.11l-92.77-.02-26.9 23.41a10.02 10.02 0 0 1-10.4 1.69c-3.5-1.46-5.88-4.77-6.14-8.55l-9.97-145.58c-.38-5.49 3.75-10.26 9.24-10.66l143.95-10.61a39.97 39.97 0 0 1 32.45 12.65 40 40 0 0 1 9.07 15.92c.67-11.87 1.01-23.93 1.06-36.13l-204.02 16.48c-8.98 62.79 8.12 128.31 22.24 195.13.84 3.98-.82 8.08-4.19 10.36a9.99 9.99 0 0 1-11.18 0l-76.64-51.57c-2.41-1.62-4-4.21-4.35-7.1-9.18-75.75 9.16-173.34 17.14-250.35.39-3.78 2.89-7.01 6.44-8.34 3.56-1.33 7.56-.53 10.34 2.07zm.99 71.86 222.63-17.98c.6 70.62-7.42 136.9-35.67 192.05l58.18 51.29c36.69-71.62 42.11-191.76 36.21-277.62a30.03 30.03 0 0 0-10.28-20.62 30.02 30.02 0 0 0-21.87-7.25l-11.89.89c24.45-62.71 30.97-127.44 32.77-192.74.24-8.42-3.08-16.54-9.13-22.39a29.98 29.98 0 0 0-22.68-8.39l-198.03 23.58-69.78-34.93c27.31 82.37 36.13 166.77 38.89 251.82l-13.66 1.02-34.09-31.9c-7.91 76.33-26.26 173.04-17.16 248.12l76.65 51.58c-14.97-70.81-32.88-140.24-21.09-206.53m69.39-66.75-22.11-167.16 161.46-6.94c-.71 12.25-1.69 24.48-3.06 36.66l-89.04.75c-8.2.07-16.01 3.49-21.62 9.46a30.02 30.02 0 0 0-8.09 22.17l5.63 103.34zm8.67-10.67 3.98-.3-5.09-93.55a40 40 0 0 1 10.78-29.55 40 40 0 0 1 28.82-12.62l80.11-.68q.795-8.115 1.38-16.26l-139.42 5.99zm70.68-62.85c-3.27.98-3.53.81-.19-3.44zm0 0c6.28-1.86 23.7-7.93 48.06 2.76-5.89 23.53-15.76 40.2-27.16 63.08l.38.19-17.62 1.31zm14.39 56.52c8.6-16.95 16.21-30.68 21.53-47.57-10.7-3.12-19.41-2.53-25.49-1.35l2.66 49.01zm-96.58 224.46 96.54.02c14.89.12 27.62-10.7 29.9-25.41l9.87-70.45a29.98 29.98 0 0 0-7.66-25 30 30 0 0 0-24.38-9.49l-143.97 10.61 9.97 145.58zm72.79-73.56.4 9.97s.01-.02.02-.05l.02 5.79-53.62 19.17-.81-30.56zm-17.25 11.41-26.5 2.12.2 7.29z" fill="#fff"/><path d="M2270.35-142.852H-159.711V2842.7H2270.35z" fill="#F2E83A" fill-opacity=".2"/><path fill-rule="evenodd" clip-rule="evenodd" d="M2270.35-142.852V2842.7H-159.711V-142.852zm-7 7H-152.711V2835.7H2263.35z" fill="#fff" fill-opacity=".62"/><path fill-rule="evenodd" clip-rule="evenodd" d="M1530.73 78.712c26.44-6.63 505.35-15.306 477.01 8.885-8.78 7.492-6.78 23.994-1.96 22.777 16.5-4.168 92.08-61.299 107.18-56.955 8.42 2.423-46.11 77.198-44.19 111.713 1.16 20.938 18.69-59.075 21.44-38.808 1.17 8.551-3.12 77.128-4.03 89.236-2.19 29.104 37.13-75.442 36.72-61.619-1.44 48.067-36.42 148.716-36.48 154.38-.22 20.238 1.72-118.216-52.31-72.668-8.74 7.371-11.83 29.134-11.41 58.433.12 8.386 9.85 19.059 10.5 28.519 7.23 106.595 44.47 271.15 39.4 263.562-3.76-5.621-30.38-152.52-49.36-265.816-1.76-10.527-12.78-22.433-14.39-32.239-6.17-37.681-11.01-69.008-13.12-86.021-2.99-24.097 53.61-4.32 55.43-18.532.98-7.686 19.73-62.369.24-71.605-13.03-6.173-65.43 29.709-69.32 33.13-12.08 10.636-36.08 39.769-62.46 72.736-7.38 9.228 5.1 25.288-2.45 34.794-40.54 51.08-495.57 663.22-502.32 663.183-6.1-.034 444.5-612.071 481.25-665.932 8.55-12.531-2.88-31.784 5.31-44.103 28.71-43.217 52.05-81.506 48.17-89.413-5.5-11.201-63.28 25.624-115.18 60.024-6.52 4.329-8.48 20.904-14.71 25.056-31.97 21.315-58.43 38.969-63.69 39.355-6.19.454 21.93-19.417 54.24-43.874 6.79-5.135 9.28-22.758 16.16-28.152 36.8-28.861 70.92-59.337 59.71-69.113-10.6-9.237-92.38-12.579-175.07-14.307-1.94-.04-19.55 24.418-45.91 62.564-8.72 12.616 8.82 46.661-1.56 61.88-100.51 147.344-267.3 398.372-273.47 398.265-5.77-.101 159.66-267.887 246.65-412.9 9.51-15.85-9.13-50.165-1.82-62.572 17.5-29.723 27.76-48.1 26.29-48.124-79.81-1.244-146.4-1.75-130.49-5.739" fill="#fff" fill-opacity=".8"/><path fill-rule="evenodd" clip-rule="evenodd" d="M2034.98 706.803s74.22 659.907 61.78 740.627c-12.3 79.83-139.7-265.47-137.9-246.72 1.79 18.74 94.85 216.98 111.58 332.77 20.37 140.92 8.12 408.72 10.63 512.78.9 37.21 28.55 114.01 4.47 111.59-4.04-.41-28.3-10.5-65.9-26.99-6.79-2.97 6.28-34.29-1.34-37.67-104.75-46.38-504.2-85.92-651.38-149.65-34.53-14.95-74.06-38.39-73.64-57.24 1.23-55.78 142.76-111.86 135.83-110.28-17.77 4.05-153.96 57.56-150.22 116.23 1.25 19.53 44.04 49.4 77.18 65.19 147.39 70.2 549.37 116.62 651.56 166.58 9.49 4.64-2.01 37.07 6.01 40.99 33.38 16.3 53.31 26.02 53.31 26.02s57.74-.38 55.95-22.19c-3.98-48.45 24.42-363.79 4.87-258.74-10.39 55.78-22.88 118.44-25.74 115.65-7.29-7.09 10.46-198.12 9.02-237.05-15.48-420.51-20.33-1004.817-20.33-1004.817s-13.91 230.897-23.85 252.157c-9.94 21.25-31.89-329.237-31.89-329.237" fill="#fff" fill-opacity=".79"/><path fill-rule="evenodd" clip-rule="evenodd" d="M970.43 1.836s94.81-7.762 132.98 13.867c23.15 13.12-8.13 59.67 2.39 60.407 10.66.747 21.11-61.93 31.78-62.557 14.99-.882 84.15-4.837 110 10.343 17.88 10.5-6.37 41.945 4.29 41.513 11.42-.463 30.77-58.345 42.19-58.2 12.22.155 62.01-.368 114.59-.232 7.93.021-15.41 126.027-7.47 126.082 6.11.042 43.52-125.874 49.51-125.806 36.23.41 69.25 1.32 87.04 3.194 42.47 4.475-35.14 16.651-6.28 16.883 46.76.377 109.46-18.718 139.25-17.089 15.89.87-3.46 22.23 12.44 21.587 24.33-.98 98.44-26.015 133.53-27.475 35.09-1.459 68.47 22.651 104.03 23.993 37.92 1.43 101.37-19.879 123.44-15.41 14.1 2.853-4.52 39.655 8.96 42.213 13.48 2.56 62.53-36.346 71.92-26.862s-20.07 76.984-15.6 83.767 33.47-34.633 34.3-14.503c6.01 145.708 1.72 888.752 1.72 888.752l8.93 618.867 22.95-1588.527-48.61 51.676 52.88-93.522-93.22 45.431 34.61-49.773-147.57 40.492-77.81-19.364L1743.92 7.05l36.81-10.572-151.32 7.915-32.01-17.095 13.21 17.023-31.63-4.62-137.36.754-27.21 75.61 7.84-75.503-145.43.8-22.41 10.264L1234.74.908l-36.35 5.712-19.79-5.514zm976.01 2654.334s-248.96-8.9-465.74-11.66c-163.44-2.09-304.28 1.38-330.58 3.16-25.17 1.69 69.43-60.57 44.22-61.4-52.3-1.72-280.149 15.09-425.06 39.84-63.76 10.9-89.129 43.06-114.203 42.49-19.293-.44 65.949-96.6 46.894-93.55-29.607 4.74-220.899 76.98-270.019 76.96-47.49-.02 13.427-102.5-32.784-113.45-58.159-13.78-374.09 173.6-405.052 161.3-28.549-11.35 245.848-199.77 227.367-198.79s-129.784 45.83-139.692-13.72c-18.654-112.1 27.772-658.87 27.772-658.87s-29.066 617.87-3.514 664.6c8.809 16.11 28.946-24.14 51.979-83.95 4.132-10.72 4.397-48.76 9.816-60.05 41.488-86.46 245.631-262.38 251.799-264.41 7.514-2.48-228.817 192.95-242.483 275.66-2.351 14.23-3.821 53.15-6.092 64.66-4.556 23.08-6.02 40.23-2.658 47.54 3.349 7.27 28.613-6.31 67.725-33.27 19.266-13.27 12.394-68.23 37.416-87.11 65.032-49.05 139.123-117.14 209.977-186.5 40.685-39.82 140.833 47.72 206.868 20.04 172.737-72.41 404.324-326.65 429.524-343.89 6.24-4.27-250.162 280.08-425.22 359.07-61.795 27.88-161.034-58.05-198.701-19.17-68.048 70.24-136.643 139.79-190.207 192.83-18.677 18.49 21.001 77.1 7.774 91.65-30.144 33.14-155.767 113.1-144.417 115.58 60.915 13.3 510.28-193.36 538.851-194.44 28.571-1.07-232.761 110.77-268.081 140.8-29.34 24.95-6.982 113.05 85.662 77.83 64.076-24.37 295.878-131.56 335.015-138.25 39.137-6.7-152.411 105.53-118.285 123.88 34.127 18.34 263.349 4.65 323.049-13.81 42.61-13.17 42.04-118.9 53.22-122.76 11.19-3.87-24.87 99.67 6.59 111.23 34.92 12.82 171.82-12.87 202.92-34.27 29.14-20.06-21.89-106.7-9.07-105.77 12.81.92 45.55 88.74 85.96 111.3 15.44 8.62-161.26 52.27-109.51 71.02 83.76 30.36 656.71 27.16 650.97 47.65M774.413-3.828l-790.24-10.147 1.999 193.615C-26.438 90.424 9.035 131.026 55.757 202c0 0-71.27-185.545-39.84-183.662 12.826.768 116.849 180.168 116.849 180.168S72.005 82.054 52.188 26.266C42.2-1.848 66.788-9.064 79.292 9.316c78.245 115 522.941 879.204 522.941 879.204S199.44 177.295 138.204 29.6C124.56-3.31 203.415-6.998 235.113 9.26c48.162 24.702 140.593 113.906 140.593 113.906L274.997 3.026l217.718 3.726 246.948 437.7L542.828 10.359zM-21.053 370.179l74.436 120.863-86.177-26.236-33.192 392S64.99 1014.78 95.81 1045.21c5.656 5.59 17.857-11.79 23.122-5.83 7.108 8.04 14.408 61.42 28.824 84.7 16.467 26.6 257.243 77.03 256.934 78.54-.325 1.59-243.712-47.98-261.901-72.65-14.238-19.31-20.603-67.98-27.331-73.59-6.528-5.44-13.373 20.55-20.226 15.52-29.439-21.59-73.09-134.33-92.843-95.721-8.317 16.258 11.89 78.221 9.34 134.231-4.64 101.91-18.475 196.42 7.54 136.98 7.406-16.93-29.197 178.93-29.197 178.93s73.035 46.06 103.261 51.59c12.147 2.22 10.28-57.83 22.593-58.78 66.864-5.15 383.47 1.63 383.47 1.63s-315.637 1.87-382.456 8.98c-12.735 1.36-10.595 61.25-23.335 59.94-36.44-3.76-195.304-82.5-195.304-82.5l-44.442-1214.678zM2172.37 2084.68c-.44-9.79-26.45 12.83-26.45 12.83s35.01 41.25 34.57 52.61c-.45 11.37-37.25 15.56-37.25 15.56s40.89 62.75 41.07 76.51c.17 13.48-39.99 6.07-39.99 6.07s31.75 32.82 30.11 40.24c-1.64 7.41-39.96 4.26-39.96 4.26s34.75 34.32 36.06 42.58c1.32 8.26-28.2 6.95-28.2 6.95s36.94 50.34 36.49 58.26-39.2-10.74-39.2-10.74 31.81 50.2 31.1 59.72c-.33 4.44-4.64 19.33-44.96-1.72-45.96-23.99-128.64-84.64-128.64-84.64s178.91 133.06 178.23 141.57c-.67 8.5-44.05-6.77-44.05-6.77s42.15 41.45 41.5 50.26-45.41 2.6-45.41 2.6 54.02 50.82 54.35 58.62-136.09-68.2-136.09-68.2 137.95 106.26 137.71 112.78c-.25 6.52-110.05-50.49-110.05-50.49l100.9 121.07s2.87-535.41-1.84-639.93" fill="#fff" fill-opacity=".8"/><path fill-rule="evenodd" clip-rule="evenodd" d="M-25.588 1614.78c.17-4.21 45.31-149.19 52.91-49.24 5.08 66.91-29.69 375.98-20.62 419.12 12.54 59.55 44.7-13.44 44.7-13.44s-53.47 118.19-53.03 130.87c.45 12.68 37.25-10.5 37.25-10.5s-34.43 83.74-34.61 99.1c-.18 15.04 31.66-24.64 32.11-15.8s-27.39 202.93-26.68 213.55-3.61 72.12-2.93 81.62c.67 9.48 57.8-46.51 57.8-46.51s-61.63 77.24-60.98 87.07 16.39 29.18 16.39 29.18-19.27 38.43-19.6 47.14c-.33 8.7 114.37-37.41 114.37-37.41s-114.05 92.83-113.8 100.11c.24 7.27-4.39 50.1-4.39 50.1s-20.31-616.06-24.07-925.84c-.98-80.24 4.21-135.12 5.18-159.12M836.88 2700.3c10.928-.44-146.996-7.62-157.69-8.27-10.693-.64-66.27 9.75-78.951 9.31-12.68-.45 15.672-19.14 3.182-18.5-12.48.63-62.721 22.14-78.081 22.32-15.046.17 95.74-65.47 87.122-67.12-8.617-1.64-130.532 58.88-138.814 57.24-8.272-1.64-1.786-21.56-12.067-21.22-10.28.34-40.418 21.97-49.638 23.28-9.209 1.31-13.563-11.28-24.122-10.89-10.56.39-30.406 13.67-39.247 13.22-8.84-.45 7.736-24.61-1.373-25.96-9.119-1.35-42.673 18.57-53.3 17.86s65.623-74.21 55.354-73.42c-45.04 3.45-212.653 71.14-221.371 71.47-8.695.33 3.851-20.57-6.596-20.67-10.46-.09-69.162 26.43-76.44 26.19-7.267-.24-13.852-6.47-22.202-5.74s-20.058 17.01-20.058 17.01 717.624-1.39 834.292-6.11" fill="#fff" fill-opacity=".8"/><path fill-rule="evenodd" clip-rule="evenodd" d="M657.011-.78c10.928.44 120.553 243.399 120.553 243.399 2.724-13.18-143.971-272.21-160.436-253.42-7.836 8.94-13.774 51.16-13.774 51.16S533.311-.53 517.951-.71C502.905-.88 573.54 139.5 573.54 139.5S482.913-14.85 474.63-13.21c-8.282 1.64-13.126 62.34-13.126 62.34s-47.73-40.71-56.951-42.02c-9.208-1.31-16.81 29.63-16.81 29.63S338.528-8 329.688-7.55c-4.867.25-29.692 2.91-38.912 8.34-7.523 4.41-42.517-4.16-47.283-3.84-10.627.71 54.829 56.61 54.829 56.61S234.384 7.57 224.885 8.25c-9.488.67 7.177 45.08 7.177 45.08s-19.333-23.47-33.152-42.71c-17.078-23.78-57.675-16.1-57.586 4.87.045 8.84 12.457 46.93 12.457 46.93S121.623-7.97 82.666-2.44c-8.628 1.22 67.108 120.94 67.108 120.94S73.245-17.811 21.474-2.121C14.51-.01 64.64 84.75 64.64 84.75L-4.8-1.961S540.342-5.49 657.01-.78" fill="#fff" fill-opacity=".7"/><path fill-rule="evenodd" clip-rule="evenodd" d="M1083.93 570.17s341.51-280.429 366.28-241.186c24.77 39.244-239.42 445.773-217.67 476.649 21.75 30.877 338.97-329.451 348.15-291.389 9.19 38.061-285.2 452.906-293.02 519.756-7.81 66.86 246.16-118.641 246.16-118.641s-275.44 223.981-290.97 182.751c-15.52-41.23 272.93-461.586 251.29-485.285s-367.37 381.619-381.1 343.086c-13.72-38.533 288.92-502.695 284.06-566.985-4.85-64.291-313.18 181.244-313.18 181.244" fill="#fff" fill-opacity=".6"/><path fill-rule="evenodd" clip-rule="evenodd" d="M759.434 1872.58c-21.753 7.03-359.565 94.68-310.673 135.86 48.893 41.18 195.857 89.57 275.424 64.77s201.977-213.58 201.977-213.58-106.305 146.14-227.333 187.87c-73.7 25.41-179.199-36.02-202.912-44-62.654-21.07 285.271-137.94 263.517-130.92" fill="#fff" fill-opacity=".5"/></g><defs><clipPath id="a"><path fill="#fff" d="M0 0h2160v2700H0z"/></clipPath></defs></svg>